<svg width="54" height="54" viewBox="0 0 54 54" fill="none" xmlns="http://www.w3.org/2000/svg">
<rect width="54" height="54" rx="27" fill="#15AABF"/>
<path d="M34.75 38.9167H18.9167V40.5C18.9167 41.3745 18.2078 42.0833 17.3333 42.0833H14.1667C13.2922 42.0833 12.5833 41.3745 12.5833 40.5V26.25H11V19.9167H12.5833V15.1667C12.5833 13.4178 14.0011 12 15.75 12H37.9167C39.6656 12 41.0833 13.4178 41.0833 15.1667V19.9167H42.6667V26.25H41.0833V40.5C41.0833 41.3745 40.3745 42.0833 39.5 42.0833H36.3333C35.4589 42.0833 34.75 41.3745 34.75 40.5V38.9167ZM15.75 15.1667V26.25H37.9167V15.1667H15.75ZM19.7083 35.75C21.02 35.75 22.0833 34.6866 22.0833 33.375C22.0833 32.0634 21.02 31 19.7083 31C18.3967 31 17.3333 32.0634 17.3333 33.375C17.3333 34.6866 18.3967 35.75 19.7083 35.75ZM33.9583 35.75C35.27 35.75 36.3333 34.6866 36.3333 33.375C36.3333 32.0634 35.27 31 33.9583 31C32.6467 31 31.5833 32.0634 31.5833 33.375C31.5833 34.6866 32.6467 35.75 33.9583 35.75Z" fill="white"/>
</svg>
